<?xml version="1.0" standalone="no"?>
<!DOCTYPE svg PUBLIC "-//W3C//DTD SVG 20010904//EN"
 "http://www.w3.org/TR/2001/REC-SVG-20010904/DTD/svg10.dtd">
<svg version="1.0" xmlns="http://www.w3.org/2000/svg"
 width="700.000000pt" height="700.000000pt" viewBox="0 0 700.000000 700.000000"
 preserveAspectRatio="xMidYMid meet">
<metadata>
Created by potrace 1.11, written by Peter Selinger 2001-2013
</metadata>
<g transform="translate(0.000000,700.000000) scale(0.100000,-0.100000)"
fill="#000000" stroke="none">
<path d="M3825 6825 c-319 -44 -570 -173 -779 -397 l-85 -91 -38 23 c-63 37
-202 90 -308 116 -139 35 -360 44 -506 20 -431 -71 -781 -329 -965 -711 -29
-60 -62 -146 -74 -191 l-22 -81 -72 -18 c-421 -108 -753 -407 -894 -805 -52
-149 -66 -238 -66 -410 2 -260 63 -457 210 -681 181 -274 531 -493 866 -542
l86 -12 53 -80 c67 -101 241 -277 339 -342 91 -61 210 -122 308 -157 159 -57
405 -87 564 -69 l76 9 71 -107 c144 -217 361 -387 610 -478 169 -62 249 -75
456 -75 149 -1 206 3 265 17 225 53 406 140 563 270 l48 40 67 -7 c37 -4 119
-2 182 4 272 26 517 125 720 292 l35 29 175 3 c144 3 194 8 283 29 286 68 545
235 715 459 185 246 270 513 259 813 -13 307 -131 578 -345 788 l-59 59 18 58
c95 307 48 681 -121 959 -180 297 -456 500 -795 586 -130 33 -296 47 -425 35
-92 -8 -106 -7 -115 7 -113 180 -228 309 -364 407 -165 118 -374 200 -592 231
-123 17 -221 17 -344 0z"/>
<path d="M1515 2028 c-236 -32 -433 -212 -481 -440 -62 -289 125 -574 427
-653 84 -22 239 -15 322 14 184 65 318 207 372 396 24 81 16 225 -17 315 -91
250 -354 405 -623 368z"/>
<path d="M592 840 c-64 -14 -130 -50 -179 -99 -107 -106 -130 -254 -62 -391
35 -69 91 -121 169 -159 47 -22 68 -26 145 -26 76 0 99 4 146 26 79 37 133 90
171 167 29 59 33 76 33 147 0 67 -5 89 -28 137 -72 147 -239 231 -395 198z"/>
</g>
</svg>
