<?xml version="1.0" encoding="UTF-8" standalone="no"?>
<svg
   xmlns:dc="http://purl.org/dc/elements/1.1/"
   xmlns:cc="http://creativecommons.org/ns#"
   xmlns:rdf="http://www.w3.org/1999/02/22-rdf-syntax-ns#"
   xmlns:svg="http://www.w3.org/2000/svg"
   xmlns="http://www.w3.org/2000/svg"
   xmlns:sodipodi="http://sodipodi.sourceforge.net/DTD/sodipodi-0.dtd"
   xmlns:inkscape="http://www.inkscape.org/namespaces/inkscape"
   viewBox="0 0 100 100"
   x="0px"
   y="0px"
   version="1.1"
   id="svg16"
   sodipodi:docname="thought_icon_transparent.svg"
   width="100"
   height="100"
   inkscape:version="0.92.3 (2405546, 2018-03-11)">
  <metadata
     id="metadata22">
    <rdf:RDF>
      <cc:Work
         rdf:about="">
        <dc:format>image/svg+xml</dc:format>
        <dc:type
           rdf:resource="http://purl.org/dc/dcmitype/StillImage" />
        <dc:title>Artboard 13</dc:title>
      </cc:Work>
    </rdf:RDF>
  </metadata>
  <defs
     id="defs20" />
  <sodipodi:namedview
     pagecolor="#ffffff"
     bordercolor="#666666"
     borderopacity="1"
     objecttolerance="10"
     gridtolerance="10"
     guidetolerance="10"
     inkscape:pageopacity="0"
     inkscape:pageshadow="2"
     inkscape:window-width="1920"
     inkscape:window-height="1022"
     id="namedview18"
     showgrid="false"
     inkscape:zoom="5.5625733"
     inkscape:cx="17.710267"
     inkscape:cy="52.854927"
     inkscape:window-x="1920"
     inkscape:window-y="34"
     inkscape:window-maximized="1"
     inkscape:current-layer="svg16" />
  <title
     id="title2">Artboard 13</title>
  <rect
     style="opacity:1;fill:none;fill-opacity:1;stroke:none;stroke-width:2.5;stroke-linecap:round;stroke-linejoin:round;stroke-miterlimit:4;stroke-dasharray:none;stroke-opacity:1"
     id="rect839"
     width="100"
     height="100"
     x="0"
     y="0"
     rx="0" />
  <g
     id="g10"
     transform="matrix(1.2036843,0,0,1.162686,-7.9166852,-5.4339511)"
     style="stroke-width:0.84530312">
    <path
       d="M 82.9336,35.252 C 83.636431,33.590176 83.999039,31.804336 84,30 83.990633,22.271897 77.728103,16.009367 70,16 c -1.086427,9.7e-5 -2.168956,0.129916 -3.2246,0.3867 C 62.296614,6.049362 48.033713,5.0362362 42.1387,14.6367 39.774852,12.915399 36.924139,11.991852 34,12 26.995906,12.009253 21.072776,17.185321 20.125,24.125 12.937826,25.095258 7.6814684,31.393543 8.012592,38.638348 8.3437156,45.883152 14.152684,51.675697 21.3984,51.9863 c 2.849868,5.92334 9.417457,9.088408 15.8262,7.627 3.910566,9.070029 15.774273,11.27074 22.6777,4.2067 0.693088,0.117629 1.394704,0.177834 2.0977,0.18 3.727847,-0.0086 7.295895,-1.514747 9.9023,-4.18 0.693088,0.117629 1.394704,0.177834 2.0977,0.18 13.108555,0.01988 19.032394,-16.390431 8.9336,-24.748 z"
       id="path8"
       inkscape:connector-curvature="0"
       sodipodi:nodetypes="cccccccsccccccc"
       style="fill:#ffffff;fill-opacity:1;stroke:#000000;stroke-width:2.53590941;stroke-linejoin:round;stroke-miterlimit:4;stroke-dasharray:none;stroke-opacity:1" />
    <path
       style="opacity:1;fill:#ffffff;fill-opacity:1;stroke:#000000;stroke-width:1.69060624;stroke-linecap:round;stroke-miterlimit:4;stroke-dasharray:none;stroke-opacity:1"
       id="path829"
       sodipodi:type="arc"
       sodipodi:cx="14.47172"
       sodipodi:cy="84.49485"
       sodipodi:rx="3.3257987"
       sodipodi:ry="3.3257987"
       sodipodi:start="4.8800977"
       sodipodi:end="4.8770957"
       sodipodi:open="true"
       d="m 15.026874,81.215713 a 3.3257987,3.3257987 0 0 1 2.724399,3.83183 3.3257987,3.3257987 0 0 1 -3.829785,2.727274 3.3257987,3.3257987 0 0 1 -2.730147,-3.827737 3.3257987,3.3257987 0 0 1 3.825687,-2.733019" />
    <path
       style="opacity:1;fill:#ffffff;fill-opacity:1;stroke:#000000;stroke-width:2.11325788;stroke-linecap:round;stroke-miterlimit:4;stroke-dasharray:none;stroke-opacity:1"
       id="path831"
       sodipodi:type="arc"
       sodipodi:cx="25.527754"
       sodipodi:cy="72.539955"
       sodipodi:rx="5.7527332"
       sodipodi:ry="5.7527332"
       sodipodi:start="4.8800977"
       sodipodi:end="4.8770957"
       sodipodi:open="true"
       d="m 26.488021,66.867934 a 5.7527332,5.7527332 0 0 1 4.712473,6.628031 5.7527332,5.7527332 0 0 1 -6.624493,4.717446 5.7527332,5.7527332 0 0 1 -4.722416,-6.62095 5.7527332,5.7527332 0 0 1 6.617404,-4.727384" />
  </g>
</svg>
